# xmcd
#
# Track frame offsets:
# 150
# 270878
# 278433
# 280402
# 282697
# 285330
# 288230
# 297425
# 307243
# 310293
# 312975
# 315817
# 318902
# 321638
#
# Disc length: 4333 seconds
#
#
# Revision: 4
# Processed by: cddbd v1.5PL3 Copyright (c) Steve Scherf et al.
# Submitted via: FreeRIP 2.20 
#
DISCID=db10eb0e
DTITLE=Tom Clancy's Rainbow Six - Rogue Spear: In-game tracks
DYEAR=1900
DGENRE=
TTITLE0=PC-CDROM data track
TTITLE1=Main Menu title music
TTITLE2=in-game track 3
TTITLE3=in-game track 4
TTITLE4=in-game track 5
TTITLE5=in-game track 6
TTITLE6=in-game track 7
TTITLE7=in-game track 8
TTITLE8=in-game track 9
TTITLE9=in-game track 10
TTITLE10=in-game track 11
TTITLE11=in-game track 12
TTITLE12=in-game track 13
TTITLE13=in-game track 14
EXTD=
EXTT0=
EXTT1=
EXTT2=
EXTT3=
EXTT4=
EXTT5=
EXTT6=
EXTT7=
EXTT8=
EXTT9=
EXTT10=
EXTT11=
EXTT12=
EXTT13=
PLAYORDER=
